# xmcd
#
# Track frame offsets:
#	150
#	20448
#	42046
#	58070
#	75670
#	99888
#	122134
#	141089
#	173482
#	201791
#	218598
#	240763
#	269961
#
# Disc length: 3806 seconds
#
# Revision: 1
# Processed by: cddbd v1.5.2PL0 Copyright (c) Steve Scherf et al.
# Submitted via: audiograbber 1.83.01
#
DISCID=a80edc0d
DTITLE=DJ Jondal - Living is easy
DYEAR=2008
DGENRE=Blues
TTITLE0=Koop - Koop Island Blues
TTITLE1=Eddie Silverton - Believers
TTITLE2=Shazz Man - Flavour
TTITLE3=Mathieu and Florzinho - Deixe 0 Sol Entrar
TTITLE4=Jens Buchert - Cubanetic
TTITLE5=Pat Appleton feat. Gabin - Nudity
TTITLE6=Club Des Belugas - Frankie
TTITLE7=The Juju Orchestra - Kind of Latin Rythm
TTITLE8=The Bahama Soul Club - But Rich Rythm
TTITLE9=Tape Five - Soulsalicious
TTITLE10=Guts - And The Living is Easy
TTITLE11=Gare Du Nord - You´re my Medicine
TTITLE12=Sharon Jones - 100 Days, 100 Nights
EXTD=KARE presents
EXTT0=
EXTT1=
EXTT2=
EXTT3=
EXTT4=
EXTT5=
EXTT6=
EXTT7=
EXTT8=
EXTT9=
EXTT10=
EXTT11=
EXTT12=
PLAYORDER=
